STARTFONT 2.1
FONT -DEC-Terminal-Bold-R-Double Wide--14-140-75-75-C-160-DEC-DECtech
SIZE 14 75 75
FONTBOUNDINGBOX 16 15 0 -3

STARTPROPERTIES 24
FOUNDRY "DEC"
FAMILY_NAME "Terminal"
WEIGHT_NAME "Bold"
SLANT "R"
SETWIDTH_NAME "Double Wide"
ADD_STYLE_NAME ""
PIXEL_SIZE 14
POINT_SIZE 140
RESOLUTION_X 75
RESOLUTION_Y 75
SPACING "C"
AVERAGE_WIDTH 160
CHARSET_REGISTRY "DEC"
CHARSET_ENCODING "DECtech"
CAP_HEIGHT 10
COPYRIGHT "Copyright (c) 1991 Digital Equipment Corporation. All Rights Reserved."
_DEC_PRODUCTINFO "DECterm Fonts V2.2, 11-Nov-1991"
FULL_NAME "Terminal Bold Double Wide"
WEIGHT 10
X_HEIGHT -1
QUAD_WIDTH 16
DEFAULT_CHAR 159
FONT_DESCENT 3
FONT_ASCENT 12
ENDPROPERTIES

CHARS 182

STARTCHAR space
ENCODING 32
SWIDTH 1140 0
DWIDTH 16 0
BBX 16 15 0 -3
BITMAP
0000
0000
0000
0000
0000
0000
0000
0000
0000
0000
0000
0000
0000
0000
0000
ENDCHAR

STARTCHAR exclam
ENCODING 33
SWIDTH 1140 0
DWIDTH 16 0
BBX 16 15 0 -3
BITMAP
0000
0000
0380
0380
0380
0380
0380
0380
0380
0000
0380
0380
0000
0000
0000
ENDCHAR

STARTCHAR quotedbl
ENCODING 34
SWIDTH 1140 0
DWIDTH 16 0
BBX 16 15 0 -3
BITMAP
0000
1C70
1C70
1C70
1C70
1C70
0000
0000
0000
0000
0000
0000
0000
0000
0000
ENDCHAR

STARTCHAR numbersign
ENCODING 35
SWIDTH 1140 0
DWIDTH 16 0
BBX 16 15 0 -3
BITMAP
0000
0000
0000
1C70
1C70
7FFC
7FFC
1C70
7FFC
7FFC
1C70
1C70
0000
0000
0000
ENDCHAR

STARTCHAR dollar
ENCODING 36
SWIDTH 1140 0
DWIDTH 16 0
BBX 16 15 0 -3
BITMAP
0000
0000
03C0
03C0
1FF8
3E7C
3E00
1FF8
007C
3E7C
1FF8
03C0
03C0
0000
0000
ENDCHAR

STARTCHAR percent
ENCODING 37
SWIDTH 1140 0
DWIDTH 16 0
BBX 16 15 0 -3
BITMAP
0000
0000
381C
6C38
6C70
6CE0
39C0
039C
0736
0E36
1C36
381C
0000
0000
0000
ENDCHAR

STARTCHAR ampersand
ENCODING 38
SWIDTH 1140 0
DWIDTH 16 0
BBX 16 15 0 -3
BITMAP
0000
0000
1F80
3FC0
39C0
1980
1F00
3F9E
79FC
78F0
7FF8
3FBC
0000
0000
0000
ENDCHAR

STARTCHAR quoteright
ENCODING 39
SWIDTH 1140 0
DWIDTH 16 0
BBX 16 15 0 -3
BITMAP
0000
0000
01E0
03E0
0780
0E00
0000
0000
0000
0000
0000
0000
0000
0000
0000
ENDCHAR

STARTCHAR parenleft
ENCODING 40
SWIDTH 1140 0
DWIDTH 16 0
BBX 16 15 0 -3
BITMAP
0000
003C
0078
00F0
00E0
01E0
01C0
01C0
01E0
00E0
00F0
0078
003C
0000
0000
ENDCHAR

STARTCHAR parenright
ENCODING 41
SWIDTH 1140 0
DWIDTH 16 0
BBX 16 15 0 -3
BITMAP
0000
3C00
1E00
0F00
0700
0780
0380
0380
0780
0700
0F00
1E00
3C00
0000
0000
ENDCHAR

STARTCHAR asterisk
ENCODING 42
SWIDTH 1140 0
DWIDTH 16 0
BBX 16 15 0 -3
BITMAP
0000
0000
0C60
0EE0
07C0
1FF0
1FF0
07C0
0EE0
0C60
0000
0000
0000
0000
0000
ENDCHAR

STARTCHAR plus
ENCODING 43
SWIDTH 1140 0
DWIDTH 16 0
BBX 16 15 0 -3
BITMAP
0000
0000
0000
0380
0380
0380
3FF8
3FF8
0380
0380
0380
0000
0000
0000
0000
ENDCHAR

STARTCHAR comma
ENCODING 44
SWIDTH 1140 0
DWIDTH 16 0
BBX 16 15 0 -3
BITMAP
0000
0000
0000
0000
0000
0000
0000
0000
0000
03C0
03C0
0380
0F00
0000
0000
ENDCHAR

STARTCHAR minus
ENCODING 45
SWIDTH 1140 0
DWIDTH 16 0
BBX 16 15 0 -3
BITMAP
0000
0000
0000
0000
0000
0000
1FF8
1FF8
0000
0000
0000
0000
0000
0000
0000
ENDCHAR

STARTCHAR period
ENCODING 46
SWIDTH 1140 0
DWIDTH 16 0
BBX 16 15 0 -3
BITMAP
0000
0000
0000
0000
0000
0000
0000
0000
0000
03C0
03C0
03C0
0000
0000
0000
ENDCHAR

STARTCHAR slash
ENCODING 47
SWIDTH 1140 0
DWIDTH 16 0
BBX 16 15 0 -3
BITMAP
0000
0038
0038
0078
00F0
00E0
01C0
0380
0700
0F00
0E00
1C00
1C00
0000
0000
ENDCHAR

STARTCHAR zero
ENCODING 48
SWIDTH 1140 0
DWIDTH 16 0
BBX 16 15 0 -3
BITMAP
0000
0000
0380
0FE0
1EF0
3C78
3C78
3C78
3C78
1EF0
0FE0
0380
0000
0000
0000
ENDCHAR

STARTCHAR one
ENCODING 49
SWIDTH 1140 0
DWIDTH 16 0
BBX 16 15 0 -3
BITMAP
0000
0000
07C0
0FC0
1FC0
13C0
03C0
03C0
03C0
03C0
1FF8
1FF8
0000
0000
0000
ENDCHAR

STARTCHAR two
ENCODING 50
SWIDTH 1140 0
DWIDTH 16 0
BBX 16 15 0 -3
BITMAP
0000
0000
0FF0
1FF8
1C78
0078
00F0
03E0
0780
0F00
1FF8
1FF8
0000
0000
0000
ENDCHAR

STARTCHAR three
ENCODING 51
SWIDTH 1140 0
DWIDTH 16 0
BBX 16 15 0 -3
BITMAP
0000
0000
1FF0
3FF8
3078
0078
07F0
07F8
0078
3078
3FF8
1FF0
0000
0000
0000
ENDCHAR

STARTCHAR four
ENCODING 52
SWIDTH 1140 0
DWIDTH 16 0
BBX 16 15 0 -3
BITMAP
0000
0000
00F8
01F8
03F8
0F78
1C78
3878
3FFE
3FFE
0078
0078
0000
0000
0000
ENDCHAR

STARTCHAR five
ENCODING 53
SWIDTH 1140 0
DWIDTH 16 0
BBX 16 15 0 -3
BITMAP
0000
0000
1FF8
1FF8
1E00
1E00
1FF8
1FFC
003C
187C
1FF8
0FF0
0000
0000
0000
ENDCHAR

STARTCHAR six
ENCODING 54
SWIDTH 1140 0
DWIDTH 16 0
BBX 16 15 0 -3
BITMAP
0000
0000
07F0
1FF0
3C00
3C00
3DF0
3FF8
3C78
3C78
1FF8
0FF0
0000
0000
0000
ENDCHAR

STARTCHAR seven
ENCODING 55
SWIDTH 1140 0
DWIDTH 16 0
BBX 16 15 0 -3
BITMAP
0000
0000
1FFC
1FFC
1C78
00F0
01E0
01E0
03C0
03C0
0780
0780
0000
0000
0000
ENDCHAR

STARTCHAR eight
ENCODING 56
SWIDTH 1140 0
DWIDTH 16 0
BBX 16 15 0 -3
BITMAP
0000
0000
0FE0
3FF8
3C78
3C78
0FE0
3FF8
3C78
3C78
3FF8
0FE0
0000
0000
0000
ENDCHAR

STARTCHAR nine
ENCODING 57
SWIDTH 1140 0
DWIDTH 16 0
BBX 16 15 0 -3
BITMAP
0000
0000
0FE0
1FF0
3C78
3C78
3C78
1FF8
0F78
0078
1FF0
1FE0
0000
0000
0000
ENDCHAR

STARTCHAR colon
ENCODING 58
SWIDTH 1140 0
DWIDTH 16 0
BBX 16 15 0 -3
BITMAP
0000
0000
0000
0000
03C0
03C0
03C0
0000
0000
03C0
03C0
03C0
0000
0000
0000
ENDCHAR

STARTCHAR semicolon
ENCODING 59
SWIDTH 1140 0
DWIDTH 16 0
BBX 16 15 0 -3
BITMAP
0000
0000
0000
0000
03C0
03C0
03C0
0000
0000
03C0
03C0
0380
0F00
0000
0000
ENDCHAR

STARTCHAR less
ENCODING 60
SWIDTH 1140 0
DWIDTH 16 0
BBX 16 15 0 -3
BITMAP
0000
0000
0000
007C
01F0
07C0
1F00
3C00
1F00
07C0
01F0
007C
0000
0000
0000
ENDCHAR

STARTCHAR equal
ENCODING 61
SWIDTH 1140 0
DWIDTH 16 0
BBX 16 15 0 -3
BITMAP
0000
0000
0000
0000
0000
1FF8
1FF8
0000
1FF8
1FF8
0000
0000
0000
0000
0000
ENDCHAR

STARTCHAR greater
ENCODING 62
SWIDTH 1140 0
DWIDTH 16 0
BBX 16 15 0 -3
BITMAP
0000
0000
0000
3E00
0F80
03E0
00F8
003C
00F8
03E0
0F80
3E00
0000
0000
0000
ENDCHAR

STARTCHAR question
ENCODING 63
SWIDTH 1140 0
DWIDTH 16 0
BBX 16 15 0 -3
BITMAP
0000
0FC0
3FF0
38F8
3078
00F8
03F0
07C0
0780
0000
0780
0780
0000
0000
0000
ENDCHAR

STARTCHAR at
ENCODING 64
SWIDTH 1140 0
DWIDTH 16 0
BBX 16 15 0 -3
BITMAP
0000
0FFC
3E0E
3C0E
3CFE
3DE6
3DE6
3DE6
3DFE
3C7C
3C00
3E0E
0FFE
0000
0000
ENDCHAR

STARTCHAR A
ENCODING 65
SWIDTH 1140 0
DWIDTH 16 0
BBX 16 15 0 -3
BITMAP
0000
0000
0180
03C0
07E0
0FF0
1E78
3C3C
3FFC
7FFE
F81F
F81F
0000
0000
0000
ENDCHAR

STARTCHAR B
ENCODING 66
SWIDTH 1140 0
DWIDTH 16 0
BBX 16 15 0 -3
BITMAP
0000
0000
7FFC
3FFE
3C3E
3C1C
3FF8
3FFE
3C1F
3C3F
3FFE
7FFC
0000
0000
0000
ENDCHAR

STARTCHAR C
ENCODING 67
SWIDTH 1140 0
DWIDTH 16 0
BBX 16 15 0 -3
BITMAP
0000
0000
07F0
1FFC
3E1E
7C00
7C00
7C00
7C0E
3E1E
1FFC
07F0
0000
0000
0000
ENDCHAR

STARTCHAR D
ENCODING 68
SWIDTH 1140 0
DWIDTH 16 0
BBX 16 15 0 -3
BITMAP
0000
0000
7FE0
3FF8
3C7C
3C3E
3C3E
3C3E
3C3E
3C7C
3FF8
7FE0
0000
0000
0000
ENDCHAR

STARTCHAR E
ENCODING 69
SWIDTH 1140 0
DWIDTH 16 0
BBX 16 15 0 -3
BITMAP
0000
0000
7FFC
1FFC
1E0C
1E04
1FE0
1FE0
1E04
1E0C
1FFC
7FFC
0000
0000
0000
ENDCHAR

STARTCHAR F
ENCODING 70
SWIDTH 1140 0
DWIDTH 16 0
BBX 16 15 0 -3
BITMAP
0000
0000
7FFC
1FFC
1E0C
1E04
1FF0
1FF0
1E00
1E00
1E00
7F80
0000
0000
0000
ENDCHAR

STARTCHAR G
ENCODING 71
SWIDTH 1140 0
DWIDTH 16 0
BBX 16 15 0 -3
BITMAP
0000
0000
0FF0
3FFC
7E1E
7C00
7C00
7CFE
7CFE
7E3E
3FFE
0FF8
0000
0000
0000
ENDCHAR

STARTCHAR H
ENCODING 72
SWIDTH 1140 0
DWIDTH 16 0
BBX 16 15 0 -3
BITMAP
0000
0000
7E7E
3C3C
3C3C
3C3C
3FFC
3FFC
3C3C
3C3C
3C3C
7E7E
0000
0000
0000
ENDCHAR

STARTCHAR I
ENCODING 73
SWIDTH 1140 0
DWIDTH 16 0
BBX 16 15 0 -3
BITMAP
0000
0000
1FF8
1FF8
03C0
03C0
03C0
03C0
03C0
03C0
1FF8
1FF8
0000
0000
0000
ENDCHAR

STARTCHAR J
ENCODING 74
SWIDTH 1140 0
DWIDTH 16 0
BBX 16 15 0 -3
BITMAP
0000
0000
07F8
07F8
0078
0078
0078
0078
0078
3C78
3FF0
1FE0
0000
0000
0000
ENDCHAR

STARTCHAR K
ENCODING 75
SWIDTH 1140 0
DWIDTH 16 0
BBX 16 15 0 -3
BITMAP
0000
0000
7E1E
3C3C
3C78
3CF0
3FE0
3FC0
3FF0
3CF8
3C7C
7E3E
0000
0000
0000
ENDCHAR

STARTCHAR L
ENCODING 76
SWIDTH 1140 0
DWIDTH 16 0
BBX 16 15 0 -3
BITMAP
0000
0000
3FC0
0F00
0F00
0F00
0F00
0F00
0F04
0F0C
0FFC
3FFC
0000
0000
0000
ENDCHAR

STARTCHAR M
ENCODING 77
SWIDTH 1140 0
DWIDTH 16 0
BBX 16 15 0 -3
BITMAP
0000
0000
F81F
7C3E
7C3E
7E7E
7FFE
7BDE
799E
799E
799E
F81F
0000
0000
0000
ENDCHAR

STARTCHAR N
ENCODING 78
SWIDTH 1140 0
DWIDTH 16 0
BBX 16 15 0 -3
BITMAP
0000
0000
7C3E
3C3C
3E3C
3F3C
3FBC
3DFC
3CFC
3C7C
3C3C
7C3C
0000
0000
0000
ENDCHAR

STARTCHAR O
ENCODING 79
SWIDTH 1140 0
DWIDTH 16 0
BBX 16 15 0 -3
BITMAP
0000
0000
07E0
1FF8
3E7C
7C3E
7C3E
7C3E
7C3E
3E7C
1FF8
07E0
0000
0000
0000
ENDCHAR

STARTCHAR P
ENCODING 80
SWIDTH 1140 0
DWIDTH 16 0
BBX 16 15 0 -3
BITMAP
0000
0000
7FF0
3FFC
3C3E
3C1E
3C3E
3FFC
3FF0
3C00
3C00
7E00
0000
0000
0000
ENDCHAR

STARTCHAR Q
ENCODING 81
SWIDTH 1140 0
DWIDTH 16 0
BBX 16 15 0 -3
BITMAP
0000
0000
07E0
1FF8
3E7C
7C3E
7C3E
7C3E
7C3E
3EFC
1FF8
07E0
0070
0038
0000
ENDCHAR

STARTCHAR R
ENCODING 82
SWIDTH 1140 0
DWIDTH 16 0
BBX 16 15 0 -3
BITMAP
0000
0000
7FE0
3FF8
3C7C
3C3C
3C7C
3FF8
3FE0
3CF8
3C7C
7E3E
0000
0000
0000
ENDCHAR

STARTCHAR S
ENCODING 83
SWIDTH 1140 0
DWIDTH 16 0
BBX 16 15 0 -3
BITMAP
0000
0000
07F0
1FFC
3E1E
3F80
1FF0
0FFC
01FE
3C1E
1FFC
0FF0
0000
0000
0000
ENDCHAR

STARTCHAR T
ENCODING 84
SWIDTH 1140 0
DWIDTH 16 0
BBX 16 15 0 -3
BITMAP
0000
0000
3FFC
3FFC
23C4
03C0
03C0
03C0
03C0
03C0
03C0
07E0
0000
0000
0000
ENDCHAR

STARTCHAR U
ENCODING 85
SWIDTH 1140 0
DWIDTH 16 0
BBX 16 15 0 -3
BITMAP
0000
0000
7E7E
3C3C
3C3C
3C3C
3C3C
3C3C
3C3C
1E78
1FF8
07E0
0000
0000
0000
ENDCHAR

STARTCHAR V
ENCODING 86
SWIDTH 1140 0
DWIDTH 16 0
BBX 16 15 0 -3
BITMAP
0000
0000
7E3F
3C1E
3C1E
1C1C
1E3C
0E38
0F78
07F0
03E0
01C0
0000
0000
0000
ENDCHAR

STARTCHAR W
ENCODING 87
SWIDTH 1140 0
DWIDTH 16 0
BBX 16 15 0 -3
BITMAP
0000
0000
F81F
799E
799E
799E
7BDE
3BDC
3FFC
1E78
1C38
1C38
0000
0000
0000
ENDCHAR

STARTCHAR X
ENCODING 88
SWIDTH 1140 0
DWIDTH 16 0
BBX 16 15 0 -3
BITMAP
0000
0000
7E1F
1F3C
0FF8
07F0
03E0
03E0
07F0
0F78
1E3C
7C1F
0000
0000
0000
ENDCHAR

STARTCHAR Y
ENCODING 89
SWIDTH 1140 0
DWIDTH 16 0
BBX 16 15 0 -3
BITMAP
0000
0000
F81F
7C3E
3E7C
1E78
0FF0
07E0
03C0
03C0
03C0
07E0
0000
0000
0000
ENDCHAR

STARTCHAR Z
ENCODING 90
SWIDTH 1140 0
DWIDTH 16 0
BBX 16 15 0 -3
BITMAP
0000
0000
3FFC
3FFC
303C
20F8
01F0
07C0
1F04
3E0C
3FFC
3FFC
0000
0000
0000
ENDCHAR

STARTCHAR bracketleft
ENCODING 91
SWIDTH 1140 0
DWIDTH 16 0
BBX 16 15 0 -3
BITMAP
0000
03FC
03FC
03C0
03C0
03C0
03C0
03C0
03C0
03C0
03C0
03FC
03FC
0000
0000
ENDCHAR

STARTCHAR backslash
ENCODING 92
SWIDTH 1140 0
DWIDTH 16 0
BBX 16 15 0 -3
BITMAP
0000
1C00
1C00
1E00
0F00
0700
0380
01C0
00E0
00F0
0078
0038
0038
0000
0000
ENDCHAR

STARTCHAR bracketright
ENCODING 93
SWIDTH 1140 0
DWIDTH 16 0
BBX 16 15 0 -3
BITMAP
0000
3FC0
3FC0
03C0
03C0
03C0
03C0
03C0
03C0
03C0
03C0
3FC0
3FC0
0000
0000
ENDCHAR

STARTCHAR asciicircum
ENCODING 94
SWIDTH 1140 0
DWIDTH 16 0
BBX 16 15 0 -3
BITMAP
0000
0000
0000
0000
07C0
0FE0
1EF0
3C78
0000
0000
0000
0000
0000
0000
0000
ENDCHAR

STARTCHAR ldblank
ENCODING 95
SWIDTH 1140 0
DWIDTH 16 0
BBX 16 15 0 -3
BITMAP
0000
0000
0000
0000
0000
0000
0000
0000
0000
0000
0000
0000
0000
0000
0000
ENDCHAR

STARTCHAR diamond
ENCODING 96
SWIDTH 1140 0
DWIDTH 16 0
BBX 16 15 0 -3
BITMAP
0000
0000
0000
0000
0180
07E0
1FF8
7FFE
7FFE
1FF8
07E0
0180
0000
0000
0000
ENDCHAR

STARTCHAR checkerboard
ENCODING 97
SWIDTH 1140 0
DWIDTH 16 0
BBX 16 15 0 -3
BITMAP
CCCC
3333
CCCC
3333
CCCC
3333
CCCC
3333
CCCC
3333
CCCC
3333
CCCC
3333
CCCC
ENDCHAR

STARTCHAR HT
ENCODING 98
SWIDTH 1140 0
DWIDTH 16 0
BBX 16 15 0 -3
BITMAP
0000
0000
3C3C
3C3C
3FFC
3C3C
3C3C
0000
0000
3FFC
03C0
03C0
03C0
03C0
0000
ENDCHAR

STARTCHAR FF
ENCODING 99
SWIDTH 1140 0
DWIDTH 16 0
BBX 16 15 0 -3
BITMAP
0000
0000
3FC0
3C00
3FC0
3C00
3C00
0000
0000
03FC
03C0
03FC
03C0
03C0
0000
ENDCHAR

STARTCHAR CR
ENCODING 100
SWIDTH 1140 0
DWIDTH 16 0
BBX 16 15 0 -3
BITMAP
0000
0000
0FF8
3C00
3C00
1C00
0FF8
0000
0000
3FF0
3C38
3FF0
3CE0
3C78
0000
ENDCHAR

STARTCHAR LF
ENCODING 101
SWIDTH 1140 0
DWIDTH 16 0
BBX 16 15 0 -3
BITMAP
0000
0000
3C00
3C00
3C00
3C00
3FC0
0000
0000
0FFC
0F00
0FFC
0F00
0F00
0000
ENDCHAR

STARTCHAR degree
ENCODING 102
SWIDTH 1140 0
DWIDTH 16 0
BBX 16 15 0 -3
BITMAP
0000
0000
07E0
0E70
0E70
07E0
0000
0000
0000
0000
0000
0000
0000
0000
0000
ENDCHAR

STARTCHAR plusminus
ENCODING 103
SWIDTH 1140 0
DWIDTH 16 0
BBX 16 15 0 -3
BITMAP
0000
0000
01C0
01C0
01C0
1FFC
1FFC
01C0
01C0
01C0
0000
1FFC
1FFC
0000
0000
ENDCHAR

STARTCHAR NL
ENCODING 104
SWIDTH 1140 0
DWIDTH 16 0
BBX 16 15 0 -3
BITMAP
0000
0000
3C3C
3F3C
3FFC
3CFC
3C3C
0000
1E00
1E00
1E00
1E00
1FFC
0000
0000
ENDCHAR

STARTCHAR VT
ENCODING 105
SWIDTH 1140 0
DWIDTH 16 0
BBX 16 15 0 -3
BITMAP
0000
0000
1E78
1E78
1E78
07E0
0180
0000
1FF8
03C0
03C0
03C0
03C0
0000
0000
ENDCHAR

STARTCHAR ldcornsqlr
ENCODING 106
SWIDTH 1140 0
DWIDTH 16 0
BBX 16 15 0 -3
BITMAP
03C0
03C0
03C0
03C0
03C0
03C0
FFC0
FFC0
0000
0000
0000
0000
0000
0000
0000
ENDCHAR

STARTCHAR ldcornsqur
ENCODING 107
SWIDTH 1140 0
DWIDTH 16 0
BBX 16 15 0 -3
BITMAP
0000
0000
0000
0000
0000
0000
FFC0
FFC0
03C0
03C0
03C0
03C0
03C0
03C0
03C0
ENDCHAR

STARTCHAR ldcornsqul
ENCODING 108
SWIDTH 1140 0
DWIDTH 16 0
BBX 16 15 0 -3
BITMAP
0000
0000
0000
0000
0000
0000
03FF
03FF
03C0
03C0
03C0
03C0
03C0
03C0
03C0
ENDCHAR

STARTCHAR ldcornsqll
ENCODING 109
SWIDTH 1140 0
DWIDTH 16 0
BBX 16 15 0 -3
BITMAP
03C0
03C0
03C0
03C0
03C0
03C0
03FF
03FF
0000
0000
0000
0000
0000
0000
0000
ENDCHAR

STARTCHAR ldcross
ENCODING 110
SWIDTH 1140 0
DWIDTH 16 0
BBX 16 15 0 -3
BITMAP
03C0
03C0
03C0
03C0
03C0
03C0
FFFF
FFFF
03C0
03C0
03C0
03C0
03C0
03C0
03C0
ENDCHAR

STARTCHAR ldscan1
ENCODING 111
SWIDTH 1140 0
DWIDTH 16 0
BBX 16 15 0 -3
BITMAP
0000
FFFF
FFFF
0000
0000
0000
0000
0000
0000
0000
0000
0000
0000
0000
0000
ENDCHAR

STARTCHAR ldscan3
ENCODING 112
SWIDTH 1140 0
DWIDTH 16 0
BBX 16 15 0 -3
BITMAP
0000
0000
0000
0000
FFFF
FFFF
0000
0000
0000
0000
0000
0000
0000
0000
0000
ENDCHAR

STARTCHAR ldhorizontal
ENCODING 113
SWIDTH 1140 0
DWIDTH 16 0
BBX 16 15 0 -3
BITMAP
0000
0000
0000
0000
0000
0000
FFFF
FFFF
0000
0000
0000
0000
0000
0000
0000
ENDCHAR

STARTCHAR ldscan7
ENCODING 114
SWIDTH 1140 0
DWIDTH 16 0
BBX 16 15 0 -3
BITMAP
0000
0000
0000
0000
0000
0000
0000
0000
0000
0000
FFFF
FFFF
0000
0000
0000
ENDCHAR

STARTCHAR ldscan9
ENCODING 115
SWIDTH 1140 0
DWIDTH 16 0
BBX 16 15 0 -3
BITMAP
0000
0000
0000
0000
0000
0000
0000
0000
0000
0000
0000
0000
0000
FFFF
FFFF
ENDCHAR

STARTCHAR ldteelft
ENCODING 116
SWIDTH 1140 0
DWIDTH 16 0
BBX 16 15 0 -3
BITMAP
03C0
03C0
03C0
03C0
03C0
03C0
03FF
03FF
03C0
03C0
03C0
03C0
03C0
03C0
03C0
ENDCHAR

STARTCHAR ldteert
ENCODING 117
SWIDTH 1140 0
DWIDTH 16 0
BBX 16 15 0 -3
BITMAP
03C0
03C0
03C0
03C0
03C0
03C0
FFC0
FFC0
03C0
03C0
03C0
03C0
03C0
03C0
03C0
ENDCHAR

STARTCHAR ldteebt
ENCODING 118
SWIDTH 1140 0
DWIDTH 16 0
BBX 16 15 0 -3
BITMAP
03C0
03C0
03C0
03C0
03C0
03C0
FFFF
FFFF
0000
0000
0000
0000
0000
0000
0000
ENDCHAR

STARTCHAR ldteetp
ENCODING 119
SWIDTH 1140 0
DWIDTH 16 0
BBX 16 15 0 -3
BITMAP
0000
0000
0000
0000
0000
0000
FFFF
FFFF
03C0
03C0
03C0
03C0
03C0
03C0
03C0
ENDCHAR

STARTCHAR ldvertical
ENCODING 120
SWIDTH 1140 0
DWIDTH 16 0
BBX 16 15 0 -3
BITMAP
03C0
03C0
03C0
03C0
03C0
03C0
03C0
03C0
03C0
03C0
03C0
03C0
03C0
03C0
03C0
ENDCHAR

STARTCHAR lessequal
ENCODING 121
SWIDTH 1140 0
DWIDTH 16 0
BBX 16 15 0 -3
BITMAP
0000
0000
003C
01FC
0FC0
3E00
0FC0
01FC
003C
0000
3FFC
3FFC
0000
0000
0000
ENDCHAR

STARTCHAR greaterequal
ENCODING 122
SWIDTH 1140 0
DWIDTH 16 0
BBX 16 15 0 -3
BITMAP
0000
0000
3C00
3F80
03F0
007C
03F0
3F80
3C00
0000
3FFC
3FFC
0000
0000
0000
ENDCHAR

STARTCHAR pi
ENCODING 123
SWIDTH 1140 0
DWIDTH 16 0
BBX 16 15 0 -3
BITMAP
0000
0000
0000
0000
0000
7FFE
7FFE
1E78
1E78
1E78
1E78
1E78
001E
0000
0000
ENDCHAR

STARTCHAR notequal
ENCODING 124
SWIDTH 1140 0
DWIDTH 16 0
BBX 16 15 0 -3
BITMAP
0000
0000
0000
0000
0060
1FF8
1FF8
0180
1FF8
1FF8
0600
0000
0000
0000
0000
ENDCHAR

STARTCHAR sterling
ENCODING 125
SWIDTH 1140 0
DWIDTH 16 0
BBX 16 15 0 -3
BITMAP
0000
0000
03F8
07FC
0F0C
0F00
3FE0
3FE0
0F00
0F82
1FFE
3F7E
0000
0000
0000
ENDCHAR

STARTCHAR periodcentered
ENCODING 126
SWIDTH 1140 0
DWIDTH 16 0
BBX 16 15 0 -3
BITMAP
0000
0000
0000
0000
0000
03C0
03C0
0000
0000
0000
0000
0000
0000
0000
0000
ENDCHAR

STARTCHAR Error
ENCODING 159
SWIDTH 1140 0
DWIDTH 16 0
BBX 16 15 0 -3
BITMAP
0FFC
3FFE
7FFE
7E3E
7E00
7F80
3FF0
0FF8
01F8
01F8
0000
01F8
01F8
01F8
01F8
ENDCHAR

STARTCHAR space
ENCODING 160
SWIDTH 1140 0
DWIDTH 16 0
BBX 16 15 0 -3
BITMAP
0000
0000
0000
0000
0000
0000
0000
0000
0000
0000
0000
0000
0000
0000
0000
ENDCHAR

STARTCHAR ldradicalbt
ENCODING 161
SWIDTH 1140 0
DWIDTH 16 0
BBX 16 15 0 -3
BITMAP
03C0
03C0
03C0
03C0
03C0
03C0
03C0
03C0
3FC0
3FC0
03C0
00C0
0000
0000
0000
ENDCHAR

STARTCHAR ldradicaltp
ENCODING 162
SWIDTH 1140 0
DWIDTH 16 0
BBX 16 15 0 -3
BITMAP
0000
0000
0000
0000
03FF
03FF
03C0
03C0
03C0
03C0
03C0
03C0
03C0
03C0
03C0
ENDCHAR

STARTCHAR ldhorizontal
ENCODING 163
SWIDTH 1140 0
DWIDTH 16 0
BBX 16 15 0 -3
BITMAP
0000
0000
0000
0000
0000
0000
FFFF
FFFF
0000
0000
0000
0000
0000
0000
0000
ENDCHAR

STARTCHAR ldintegraltp
ENCODING 164
SWIDTH 1140 0
DWIDTH 16 0
BBX 16 15 0 -3
BITMAP
0000
0000
0000
00FC
01FF
01C3
03C0
03C0
03C0
03C0
03C0
03C0
03C0
03C0
03C0
ENDCHAR

STARTCHAR ldintegralbt
ENCODING 165
SWIDTH 1140 0
DWIDTH 16 0
BBX 16 15 0 -3
BITMAP
03C0
03C0
03C0
03C0
03C0
03C0
03C0
03C0
C380
FF80
3F00
0000
0000
0000
0000
ENDCHAR

STARTCHAR ldvertical
ENCODING 166
SWIDTH 1140 0
DWIDTH 16 0
BBX 16 15 0 -3
BITMAP
03C0
03C0
03C0
03C0
03C0
03C0
03C0
03C0
03C0
03C0
03C0
03C0
03C0
03C0
03C0
ENDCHAR

STARTCHAR ldbracketlfttp
ENCODING 167
SWIDTH 1140 0
DWIDTH 16 0
BBX 16 15 0 -3
BITMAP
0000
03FC
03FC
03C0
03C0
03C0
03C0
03C0
03C0
03C0
03C0
03C0
03C0
03C0
03C0
ENDCHAR

STARTCHAR ldbracketlftbt
ENCODING 168
SWIDTH 1140 0
DWIDTH 16 0
BBX 16 15 0 -3
BITMAP
03C0
03C0
03C0
03C0
03C0
03C0
03C0
03C0
03C0
03C0
03C0
03C0
03FC
03FC
0000
ENDCHAR

STARTCHAR ldbracketrttp
ENCODING 169
SWIDTH 1140 0
DWIDTH 16 0
BBX 16 15 0 -3
BITMAP
0000
3FC0
3FC0
03C0
03C0
03C0
03C0
03C0
03C0
03C0
03C0
03C0
03C0
03C0
03C0
ENDCHAR

STARTCHAR ldbracketrtbt
ENCODING 170
SWIDTH 1140 0
DWIDTH 16 0
BBX 16 15 0 -3
BITMAP
03C0
03C0
03C0
03C0
03C0
03C0
03C0
03C0
03C0
03C0
03C0
03C0
3FC0
3FC0
0000
ENDCHAR

STARTCHAR ldbracelfttp
ENCODING 171
SWIDTH 1140 0
DWIDTH 16 0
BBX 16 15 0 -3
BITMAP
0000
00FC
01FC
01C0
03C0
03C0
03C0
03C0
03C0
03C0
03C0
03C0
03C0
03C0
03C0
ENDCHAR

STARTCHAR ldbracelftbt
ENCODING 172
SWIDTH 1140 0
DWIDTH 16 0
BBX 16 15 0 -3
BITMAP
03C0
03C0
03C0
03C0
03C0
03C0
03C0
03C0
03C0
03C0
03C0
01C0
01FC
00FC
0000
ENDCHAR

STARTCHAR ldbracerttp
ENCODING 173
SWIDTH 1140 0
DWIDTH 16 0
BBX 16 15 0 -3
BITMAP
0000
3F00
3F80
0380
03C0
03C0
03C0
03C0
03C0
03C0
03C0
03C0
03C0
03C0
03C0
ENDCHAR

STARTCHAR ldbracertbt
ENCODING 174
SWIDTH 1140 0
DWIDTH 16 0
BBX 16 15 0 -3
BITMAP
03C0
03C0
03C0
03C0
03C0
03C0
03C0
03C0
03C0
03C0
03C0
0380
3F80
3F00
0000
ENDCHAR

STARTCHAR ldbracelftmid
ENCODING 175
SWIDTH 1140 0
DWIDTH 16 0
BBX 16 15 0 -3
BITMAP
03C0
03C0
03C0
03C0
03C0
0F00
3C00
0F00
03C0
03C0
03C0
03C0
03C0
03C0
03C0
ENDCHAR

STARTCHAR ldbracertmid
ENCODING 176
SWIDTH 1140 0
DWIDTH 16 0
BBX 16 15 0 -3
BITMAP
03C0
03C0
03C0
03C0
03C0
00F0
003C
00F0
03C0
03C0
03C0
03C0
03C0
03C0
03C0
ENDCHAR

STARTCHAR ldsigmalfttp
ENCODING 177
SWIDTH 1140 0
DWIDTH 16 0
BBX 16 15 0 -3
BITMAP
0000
0000
0000
0000
0000
0000
03FF
03FF
01C0
00E0
0070
0038
001E
000F
0003
ENDCHAR

STARTCHAR ldsigmalftb0t
ENCODING 178
SWIDTH 1140 0
DWIDTH 16 0
BBX 16 15 0 -3
BITMAP
0007
000F
001E
0038
0070
00E0
01FF
01FF
0000
0000
0000
0000
0000
0000
0000
ENDCHAR

STARTCHAR ldbackslash
ENCODING 179
SWIDTH 1140 0
DWIDTH 16 0
BBX 16 15 0 -3
BITMAP
C000
E000
7000
3800
1C00
0E00
0780
03C0
01E0
0070
0038
001C
000E
0007
0003
ENDCHAR

STARTCHAR ldslash
ENCODING 180
SWIDTH 1140 0
DWIDTH 16 0
BBX 16 15 0 -3
BITMAP
0003
0007
000E
001C
0038
0070
01E0
03C0
0780
0E00
1C00
3800
7000
E000
C000
ENDCHAR

STARTCHAR ldsigmarttp
ENCODING 181
SWIDTH 1140 0
DWIDTH 16 0
BBX 16 15 0 -3
BITMAP
0000
0000
0000
0000
0000
0000
FFFC
FFFC
000C
000C
0000
0000
0000
0000
0000
ENDCHAR

STARTCHAR ldsigmartbt
ENCODING 182
SWIDTH 1140 0
DWIDTH 16 0
BBX 16 15 0 -3
BITMAP
0000
0000
0000
0000
000C
000C
FFFC
FFFC
0000
0000
0000
0000
0000
0000
0000
ENDCHAR

STARTCHAR ldsigmamid
ENCODING 183
SWIDTH 1140 0
DWIDTH 16 0
BBX 16 15 0 -3
BITMAP
C000
E000
7000
3800
1C00
0E00
0700
0300
0700
0E00
1C00
3800
7000
E000
C000
ENDCHAR

STARTCHAR lessequal
ENCODING 188
SWIDTH 1140 0
DWIDTH 16 0
BBX 16 15 0 -3
BITMAP
0000
0000
003C
01FC
0FC0
3E00
0FC0
01FC
003C
0000
3FFC
3FFC
0000
0000
0000
ENDCHAR

STARTCHAR notequal
ENCODING 189
SWIDTH 1140 0
DWIDTH 16 0
BBX 16 15 0 -3
BITMAP
0000
0000
0000
0000
0060
1FF8
1FF8
0180
1FF8
1FF8
0600
0000
0000
0000
0000
ENDCHAR

STARTCHAR greaterequal
ENCODING 190
SWIDTH 1140 0
DWIDTH 16 0
BBX 16 15 0 -3
BITMAP
0000
0000
3C00
3F80
03F0
007C
03F0
3F80
3C00
0000
3FFC
3FFC
0000
0000
0000
ENDCHAR

STARTCHAR integral
ENCODING 191
SWIDTH 1140 0
DWIDTH 16 0
BBX 16 15 0 -3
BITMAP
0000
00F0
03CC
03C0
03C0
03C0
03C0
03C0
03C0
03C0
03C0
33C0
0F00
0000
0000
ENDCHAR

STARTCHAR therefore
ENCODING 192
SWIDTH 1140 0
DWIDTH 16 0
BBX 16 15 0 -3
BITMAP
0000
0000
0000
0000
03C0
03C0
0000
0000
0000
3C3C
3C3C
0000
0000
0000
0000
ENDCHAR

STARTCHAR proportional
ENCODING 193
SWIDTH 1140 0
DWIDTH 16 0
BBX 16 15 0 -3
BITMAP
0000
0000
0000
0000
0000
0000
0F1E
3FB8
30C0
30C0
3FF8
0F1E
0000
0000
0000
ENDCHAR

STARTCHAR infinity
ENCODING 194
SWIDTH 1140 0
DWIDTH 16 0
BBX 16 15 0 -3
BITMAP
0000
0000
0000
0000
0000
0000
0E70
3FFC
330C
330C
3FFC
0E70
0000
0000
0000
ENDCHAR

STARTCHAR divide
ENCODING 195
SWIDTH 1140 0
DWIDTH 16 0
BBX 16 15 0 -3
BITMAP
0000
0000
0000
0000
0000
0180
0180
0000
1FF8
1FF8
0000
0180
0180
0000
0000
ENDCHAR

STARTCHAR Delta
ENCODING 196
SWIDTH 1140 0
DWIDTH 16 0
BBX 16 15 0 -3
BITMAP
0000
0000
0180
03C0
07E0
0FF0
1E78
1C38
3C3C
781E
7FFE
7FFE
0000
0000
0000
ENDCHAR

STARTCHAR gradient
ENCODING 197
SWIDTH 1140 0
DWIDTH 16 0
BBX 16 15 0 -3
BITMAP
0000
0000
7FFE
7FFE
781E
3C3C
1C38
1E78
0FF0
07E0
03C0
0180
0000
0000
0000
ENDCHAR

STARTCHAR Phi
ENCODING 198
SWIDTH 1140 0
DWIDTH 16 0
BBX 16 15 0 -3
BITMAP
0000
0000
07E0
0180
1FF8
3DBC
799E
799E
799E
3DBC
1FF8
0180
07E0
0000
0000
ENDCHAR

STARTCHAR Gamma
ENCODING 199
SWIDTH 1140 0
DWIDTH 16 0
BBX 16 15 0 -3
BITMAP
0000
0000
0FF8
0FF8
0798
0780
0780
0780
0780
0780
0FC0
0FC0
0000
0000
0000
ENDCHAR

STARTCHAR similar
ENCODING 200
SWIDTH 1140 0
DWIDTH 16 0
BBX 16 15 0 -3
BITMAP
0000
0000
0000
0000
0000
0000
0C0C
3F0C
33FC
30F0
0000
0000
0000
0000
0000
ENDCHAR

STARTCHAR approxequal
ENCODING 201
SWIDTH 1140 0
DWIDTH 16 0
BBX 16 15 0 -3
BITMAP
0000
0000
0000
0000
0000
0C0C
3F0C
33FC
30F0
0000
3FFC
3FFC
0000
0000
0000
ENDCHAR

STARTCHAR Theta
ENCODING 202
SWIDTH 1140 0
DWIDTH 16 0
BBX 16 15 0 -3
BITMAP
0000
0000
07C0
1FF0
3C78
3838
3BB8
3AB8
3838
3C78
1FF0
07C0
0000
0000
0000
ENDCHAR

STARTCHAR multiply
ENCODING 203
SWIDTH 1140 0
DWIDTH 16 0
BBX 16 15 0 -3
BITMAP
0000
0000
0000
0000
0000
1818
1E78
07E0
07E0
1E78
1818
0000
0000
0000
0000
ENDCHAR

STARTCHAR Lambda
ENCODING 204
SWIDTH 1140 0
DWIDTH 16 0
BBX 16 15 0 -3
BITMAP
0000
0000
0180
03C0
07E0
07E0
0FF0
1E78
1E78
3C3C
7C3E
781E
0000
0000
0000
ENDCHAR

STARTCHAR arrowdblboth
ENCODING 205
SWIDTH 1140 0
DWIDTH 16 0
BBX 16 15 0 -3
BITMAP
0000
0000
0000
0420
0810
1FF8
3FFC
6006
3FFC
1FF8
0810
0420
0000
0000
0000
ENDCHAR

STARTCHAR arrowdblright
ENCODING 206
SWIDTH 1140 0
DWIDTH 16 0
BBX 16 15 0 -3
BITMAP
0000
0000
0000
0600
0180
7FE0
7FF8
001C
7FF8
7FE0
0180
0600
0000
0000
0000
ENDCHAR

STARTCHAR equivalence
ENCODING 207
SWIDTH 1140 0
DWIDTH 16 0
BBX 16 15 0 -3
BITMAP
0000
0000
0000
0000
1FF8
1FF8
0000
1FF8
0000
1FF8
1FF8
0000
0000
0000
0000
ENDCHAR

STARTCHAR Pi
ENCODING 208
SWIDTH 1140 0
DWIDTH 16 0
BBX 16 15 0 -3
BITMAP
0000
0000
7FFE
1E78
1E78
1E78
1E78
1E78
1E78
1E78
1E78
1E78
0000
0000
0000
ENDCHAR

STARTCHAR Psi
ENCODING 209
SWIDTH 1140 0
DWIDTH 16 0
BBX 16 15 0 -3
BITMAP
0000
0000
799E
799E
1998
1998
1998
1FF8
07E0
0180
07E0
07E0
0000
0000
0000
ENDCHAR

STARTCHAR Sigma
ENCODING 211
SWIDTH 1140 0
DWIDTH 16 0
BBX 16 15 0 -3
BITMAP
0000
0000
3FFC
3FFC
1F0C
078C
03C0
0780
0F0C
1E0C
3FFC
3FFC
0000
0000
0000
ENDCHAR

STARTCHAR radical
ENCODING 214
SWIDTH 1140 0
DWIDTH 16 0
BBX 16 15 0 -3
BITMAP
0000
0007
000E
001C
0038
0070
7070
70E0
39C0
3B80
1F00
0E00
0000
0000
0000
ENDCHAR

STARTCHAR Omega
ENCODING 215
SWIDTH 1140 0
DWIDTH 16 0
BBX 16 15 0 -3
BITMAP
0000
0000
07E0
1FF8
3C3C
781E
781E
781E
781E
3C3C
1E78
7E7E
0000
0000
0000
ENDCHAR

STARTCHAR Xi
ENCODING 216
SWIDTH 1140 0
DWIDTH 16 0
BBX 16 15 0 -3
BITMAP
0000
0000
1FF8
1FF8
1FF8
0000
0FF0
0FF0
0000
1FF8
1FF8
1FF8
0000
0000
0000
ENDCHAR

STARTCHAR Upsilon1
ENCODING 217
SWIDTH 1140 0
DWIDTH 16 0
BBX 16 15 0 -3
BITMAP
0000
0000
7C3E
3C3C
1E78
0E70
07E0
03C0
03C0
03C0
03C0
03C0
0000
0000
0000
ENDCHAR

STARTCHAR propersubset
ENCODING 218
SWIDTH 1140 0
DWIDTH 16 0
BBX 16 15 0 -3
BITMAP
0000
0000
0000
0000
0FF8
3FF8
3C00
3C00
3C00
3FF8
0FF8
0000
0000
0000
0000
ENDCHAR

STARTCHAR propersuperset
ENCODING 219
SWIDTH 1140 0
DWIDTH 16 0
BBX 16 15 0 -3
BITMAP
0000
0000
0000
0000
1FF0
1FFC
003C
003C
003C
1FFC
1FF0
0000
0000
0000
0000
ENDCHAR

STARTCHAR intersection
ENCODING 220
SWIDTH 1140 0
DWIDTH 16 0
BBX 16 15 0 -3
BITMAP
0000
0000
0000
0000
0FF0
3FFC
3C3C
3C3C
3C3C
3C3C
3C3C
0000
0000
0000
0000
ENDCHAR

STARTCHAR union
ENCODING 221
SWIDTH 1140 0
DWIDTH 16 0
BBX 16 15 0 -3
BITMAP
0000
0000
0000
0000
3C3C
3C3C
3C3C
3C3C
3C3C
3FFC
0FF0
0000
0000
0000
0000
ENDCHAR

STARTCHAR logicaland
ENCODING 222
SWIDTH 1140 0
DWIDTH 16 0
BBX 16 15 0 -3
BITMAP
0000
0000
0000
0000
0180
07E0
0FF0
1E78
1E78
781E
781E
0000
0000
0000
0000
ENDCHAR

STARTCHAR logicalor
ENCODING 223
SWIDTH 1140 0
DWIDTH 16 0
BBX 16 15 0 -3
BITMAP
0000
0000
0000
0000
781E
781E
1E78
1E78
0FF0
03C0
0180
0000
0000
0000
0000
ENDCHAR

STARTCHAR logicalnot
ENCODING 224
SWIDTH 1140 0
DWIDTH 16 0
BBX 16 15 0 -3
BITMAP
0000
0000
0000
0000
0000
0000
1FFC
1FFC
000C
000C
0000
0000
0000
0000
0000
ENDCHAR

STARTCHAR alpha
ENCODING 225
SWIDTH 1140 0
DWIDTH 16 0
BBX 16 15 0 -3
BITMAP
0000
0000
0000
0000
0F8E
1FFE
3C7C
3C78
3C78
3CF8
1FFC
0F9E
0000
0000
0000
ENDCHAR

STARTCHAR beta
ENCODING 226
SWIDTH 1140 0
DWIDTH 16 0
BBX 16 15 0 -3
BITMAP
0000
0000
01F8
03FC
079C
079C
0FF0
0F78
1E3C
1E3C
3FFC
39F8
0000
0000
0000
ENDCHAR

STARTCHAR chi
ENCODING 227
SWIDTH 1140 0
DWIDTH 16 0
BBX 16 15 0 -3
BITMAP
0000
0000
0000
0000
7C3E
1E78
0FF0
07C0
03C0
07C0
0FE0
1EF0
3C78
783E
0000
ENDCHAR

STARTCHAR delta
ENCODING 228
SWIDTH 1140 0
DWIDTH 16 0
BBX 16 15 0 -3
BITMAP
0000
0000
0FF0
1E38
0F80
1FE0
3CF0
3CF0
3CF0
3CF0
1FE0
0FC0
0000
0000
0000
ENDCHAR

STARTCHAR epsilon
ENCODING 229
SWIDTH 1140 0
DWIDTH 16 0
BBX 16 15 0 -3
BITMAP
0000
0000
0000
0000
0FF8
1FF8
1F00
0FF0
1FF0
1F00
1FF8
0FF8
0000
0000
0000
ENDCHAR

STARTCHAR phi
ENCODING 230
SWIDTH 1140 0
DWIDTH 16 0
BBX 16 15 0 -3
BITMAP
0000
0000
0080
0080
0FF8
1FFC
3C9E
3C9E
3C9E
3C9E
1FFC
0FF8
0080
0080
0000
ENDCHAR

STARTCHAR gamma
ENCODING 231
SWIDTH 1140 0
DWIDTH 16 0
BBX 16 15 0 -3
BITMAP
0000
0000
0000
3C00
FE0C
8F1C
0738
07F0
03E0
03C0
0780
0F00
0E00
1E00
1C00
ENDCHAR

STARTCHAR eta
ENCODING 232
SWIDTH 1140 0
DWIDTH 16 0
BBX 16 15 0 -3
BITMAP
0000
0000
0000
0000
71E0
7FF8
1E78
1E78
1E78
1E78
1E78
1E78
0078
0078
0000
ENDCHAR

STARTCHAR iota
ENCODING 233
SWIDTH 1140 0
DWIDTH 16 0
BBX 16 15 0 -3
BITMAP
0000
0000
0000
0000
1E00
1E00
1E00
1E00
1E00
1E1C
1E7C
07F0
0000
0000
0000
ENDCHAR

STARTCHAR theta
ENCODING 234
SWIDTH 1140 0
DWIDTH 16 0
BBX 16 15 0 -3
BITMAP
0000
0000
07E0
1FF8
1E78
1E78
1FF8
1E78
1E78
1E78
1FF8
07E0
0000
0000
0000
ENDCHAR

STARTCHAR kappa
ENCODING 235
SWIDTH 1140 0
DWIDTH 16 0
BBX 16 15 0 -3
BITMAP
0000
0000
3F00
0F00
0F0C
0F3C
0FF0
0FC0
0FE0
0F70
0F3C
0F3C
0000
0000
0000
ENDCHAR

STARTCHAR lambda
ENCODING 236
SWIDTH 1140 0
DWIDTH 16 0
BBX 16 15 0 -3
BITMAP
0000
0000
0F80
07C0
03E0
07E0
0FF0
1E78
3E7C
3C3C
7C3E
7C3E
0000
0000
0000
ENDCHAR

STARTCHAR nu
ENCODING 238
SWIDTH 1140 0
DWIDTH 16 0
BBX 16 15 0 -3
BITMAP
0000
0000
0000
0000
7C3C
7C3C
7C3C
3E3C
1E3C
1F78
07F0
07C0
0000
0000
0000
ENDCHAR

STARTCHAR partialdiff
ENCODING 239
SWIDTH 1140 0
DWIDTH 16 0
BBX 16 15 0 -3
BITMAP
0700
07C0
01E0
0070
07F0
1FF8
1E78
1E78
1E78
1E78
1FF8
07E0
0000
0000
0000
ENDCHAR

STARTCHAR pi
ENCODING 240
SWIDTH 1140 0
DWIDTH 16 0
BBX 16 15 0 -3
BITMAP
0000
0000
0000
0000
0000
7FFE
7FFE
1E78
1E78
1E78
1E78
1E78
001E
0000
0000
ENDCHAR

STARTCHAR psi
ENCODING 241
SWIDTH 1140 0
DWIDTH 16 0
BBX 16 15 0 -3
BITMAP
0000
0000
0000
03C0
73CE
73CE
73CE
33CC
3BDC
1FF8
0FF0
03C0
03C0
03C0
0000
ENDCHAR

STARTCHAR rho
ENCODING 242
SWIDTH 1140 0
DWIDTH 16 0
BBX 16 15 0 -3
BITMAP
0000
0000
0000
0000
07F0
0FF8
0E3C
1E3C
1E3C
1E7C
1FF8
1FE0
1E00
1E00
1E00
ENDCHAR

STARTCHAR sigma
ENCODING 243
SWIDTH 1140 0
DWIDTH 16 0
BBX 16 15 0 -3
BITMAP
0000
0000
0000
0000
07FC
0FFC
1E70
1E78
1E78
1E78
0FF0
07E0
0000
0000
0000
ENDCHAR

STARTCHAR tau
ENCODING 244
SWIDTH 1140 0
DWIDTH 16 0
BBX 16 15 0 -3
BITMAP
0000
0000
0000
0000
0FFC
3FFC
33C0
03C0
03C0
03C0
03C0
03E0
0000
0000
0000
ENDCHAR

STARTCHAR florin
ENCODING 246
SWIDTH 1140 0
DWIDTH 16 0
BBX 16 15 0 -3
BITMAP
0000
0000
00FC
01FE
01C6
07F0
07F0
01C0
01C0
01C0
01C0
33C0
3380
3F80
0F00
ENDCHAR

STARTCHAR omega
ENCODING 247
SWIDTH 1140 0
DWIDTH 16 0
BBX 16 15 0 -3
BITMAP
0000
0000
0000
0000
1C38
381C
799E
799E
799E
799E
3FFC
1E78
0000
0000
0000
ENDCHAR

STARTCHAR xi
ENCODING 248
SWIDTH 1140 0
DWIDTH 16 0
BBX 16 15 0 -3
BITMAP
0600
0C00
0FE0
07E0
0700
0600
0FC0
0FC0
1E00
1E00
1FF0
0FF8
0018
0030
0000
ENDCHAR

STARTCHAR upsilon
ENCODING 249
SWIDTH 1140 0
DWIDTH 16 0
BBX 16 15 0 -3
BITMAP
0000
0000
0000
0000
7C30
3E18
1E18
1E18
1E18
1E38
1FF0
0FC0
0000
0000
0000
ENDCHAR

STARTCHAR zeta
ENCODING 250
SWIDTH 1140 0
DWIDTH 16 0
BBX 16 15 0 -3
BITMAP
0300
0600
07F0
07F0
0380
0380
0700
0F00
0E00
0F00
0FF8
07FC
000C
0018
0000
ENDCHAR

STARTCHAR arrowleft
ENCODING 251
SWIDTH 1140 0
DWIDTH 16 0
BBX 16 15 0 -3
BITMAP
0000
0000
0000
0000
0000
0300
0F00
3FFC
3FFC
0F00
0300
0000
0000
0000
0000
ENDCHAR

STARTCHAR arrowup
ENCODING 252
SWIDTH 1140 0
DWIDTH 16 0
BBX 16 15 0 -3
BITMAP
0000
0000
0000
0000
03C0
0FF0
3FFC
03C0
03C0
03C0
03C0
0000
0000
0000
0000
ENDCHAR

STARTCHAR arrowright
ENCODING 253
SWIDTH 1140 0
DWIDTH 16 0
BBX 16 15 0 -3
BITMAP
0000
0000
0000
0000
0000
00C0
00F0
3FFC
3FFC
00F0
00C0
0000
0000
0000
0000
ENDCHAR

STARTCHAR arrowdown
ENCODING 254
SWIDTH 1140 0
DWIDTH 16 0
BBX 16 15 0 -3
BITMAP
0000
0000
0000
0000
03C0
03C0
03C0
03C0
3FFC
0FF0
03C0
0000
0000
0000
0000
ENDCHAR
ENDFONT
